<svg width="16" height="16" viewBox="0 0 16 16" fill="none" xmlns="http://www.w3.org/2000/svg">
<path fill-rule="evenodd" clip-rule="evenodd" d="M13.456 2.78262C14.415 2.8328 14.886 2.96473 15.32 3.68202C15.772 4.39838 16 5.63226 16 7.80548V7.80827V7.81292C16 9.97592 15.772 11.2191 15.321 11.928C14.887 12.6453 14.416 12.7754 13.457 12.8358C12.498 12.8869 10.089 12.9175 8.002 12.9175C5.911 12.9175 3.501 12.8869 2.543 12.8348C1.586 12.7745 1.115 12.6444 0.677 11.9271C0.23 11.2182 0 9.975 0 7.81199V7.81013V7.80734V7.80455C0 5.63226 0.23 4.39838 0.677 3.68202C1.115 2.9638 1.587 2.8328 2.544 2.78169C3.501 2.72223 5.911 2.69714 8.002 2.69714C10.089 2.69714 12.498 2.72223 13.456 2.78262ZM11 7.80734L6 5.01996V10.5947L11 7.80734Z" fill="#B0B8BC"/>
</svg>
