<svg width="16" height="16" viewBox="0 0 16 16" fill="none" xmlns="http://www.w3.org/2000/svg">
<path fill-rule="evenodd" clip-rule="evenodd" d="M5 0.219482H11C13.761 0.219482 16 2.2998 16 4.86512V10.4399C16 13.0052 13.761 15.0855 11 15.0855H5C2.239 15.0855 0 13.0052 0 10.4399V4.86512C0 2.2998 2.239 0.219482 5 0.219482ZM11 13.6918C12.93 13.6918 14.5 12.2331 14.5 10.4399V4.86512C14.5 3.0719 12.93 1.61317 11 1.61317H5C3.07 1.61317 1.5 3.0719 1.5 4.86512V10.4399C1.5 12.2331 3.07 13.6918 5 13.6918H11ZM4 7.6525C4 5.60006 5.791 3.93599 8 3.93599C10.209 3.93599 12 5.60006 12 7.6525C12 9.70494 10.209 11.369 8 11.369C5.791 11.369 4 9.70494 4 7.6525ZM5.5 7.6525C5.5 8.93284 6.622 9.97532 8 9.97532C9.378 9.97532 10.5 8.93284 10.5 7.6525C10.5 6.37123 9.378 5.32968 8 5.32968C6.622 5.32968 5.5 6.37123 5.5 7.6525ZM12.833 3.65726C12.833 3.93076 12.5944 4.15248 12.3 4.15248C12.0057 4.15248 11.767 3.93076 11.767 3.65726C11.767 3.38375 12.0057 3.16203 12.3 3.16203C12.5944 3.16203 12.833 3.38375 12.833 3.65726Z" fill="#B0B8BC"/>
</svg>
