<svg width="16" height="16" viewBox="0 0 16 16" fill="none" xmlns="http://www.w3.org/2000/svg">
<path d="M16 2.8883C15.405 3.1308 14.771 3.29154 14.11 3.36959C14.79 2.99236 15.309 2.39958 15.553 1.68508C14.919 2.03629 14.219 2.28437 13.473 2.42281C12.871 1.82724 12.013 1.45837 11.077 1.45837C9.261 1.45837 7.799 2.82791 7.799 4.50684C7.799 4.74841 7.821 4.98069 7.875 5.20183C5.148 5.07825 2.735 3.86388 1.114 2.01399C0.831 2.47019 0.665 2.99236 0.665 3.55448C0.665 4.60997 1.25 5.5456 2.122 6.08729C1.595 6.07799 1.078 5.93584 0.64 5.71192C0.64 5.72121 0.64 5.73329 0.64 5.74537C0.64 7.22639 1.777 8.45656 3.268 8.73994C3.001 8.80777 2.71 8.84029 2.408 8.84029C2.198 8.84029 1.986 8.82914 1.787 8.78826C2.212 9.99519 3.418 10.8825 4.852 10.9113C3.736 11.7224 2.319 12.2112 0.785 12.2112C0.516 12.2112 0.258 12.2 0 12.1694C1.453 13.0399 3.175 13.537 5.032 13.537C11.068 13.537 14.368 8.89139 14.368 4.86455C14.368 4.72983 14.363 4.59975 14.356 4.4706C15.007 4.04135 15.554 3.50524 16 2.8883Z" fill="#B0B8BC"/>
</svg>
