<svg width="16" height="16" viewBox="0 0 16 16" fill="none" xmlns="http://www.w3.org/2000/svg">
<path fill-rule="evenodd" clip-rule="evenodd" d="M3.5 1.84545C3.5 2.74345 2.7165 3.47143 1.75 3.47143C0.783502 3.47143 0 2.74345 0 1.84545C0 0.947455 0.783502 0.219482 1.75 0.219482C2.7165 0.219482 3.5 0.947455 3.5 1.84545ZM0 4.86512H3.578V15.0855H0V4.86512ZM13.324 4.98497C13.3113 4.98126 13.2989 4.97744 13.2864 4.97362C13.2616 4.96598 13.2367 4.95834 13.21 4.95153C13.162 4.94131 13.114 4.93294 13.065 4.92551C12.875 4.8902 12.667 4.86512 12.423 4.86512C10.337 4.86512 9.014 6.2746 8.578 6.81907V4.86512H5V15.0855H8.578V9.51075C8.578 9.51075 11.282 6.01166 12.423 8.58163V15.0855H16V8.1886C16 6.6444 14.861 5.35755 13.324 4.98497Z" fill="#B0B8BC"/>
</svg>
