<svg width="30" height="30" viewBox="0 0 30 30" fill="none" xmlns="http://www.w3.org/2000/svg">
<path d="M16.586 4.586C16.9611 4.21106 17.4697 4.00043 18 4.00043C18.5303 4.00043 19.0389 4.21106 19.414 4.586L28.414 13.586C28.7889 13.9611 28.9996 14.4697 28.9996 15C28.9996 15.5303 28.7889 16.0389 28.414 16.414L19.414 25.414C19.0368 25.7783 18.5316 25.9799 18.0072 25.9753C17.4828 25.9708 16.9812 25.7605 16.6104 25.3896C16.2395 25.0188 16.0292 24.5172 16.0247 23.9928C16.0201 23.4684 16.2217 22.9632 16.586 22.586L22 17H3C2.46957 17 1.96086 16.7893 1.58579 16.4142C1.21071 16.0391 1 15.5304 1 15C1 14.4696 1.21071 13.9609 1.58579 13.5858C1.96086 13.2107 2.46957 13 3 13H22L16.586 7.414C16.2111 7.03894 16.0004 6.53033 16.0004 6C16.0004 5.46967 16.2111 4.96106 16.586 4.586Z" fill="black"/>
</svg>
